# xmcd
#
# Track frame offsets:
#	150
#	12751
#	23927
#	34100
#	42350
#	52343
#	62843
#	74147
#	84482
#	96706
#	108792
#
# Disc length: 1583 seconds
#
# Revision: 1
# Processed by: cddbd v1.5.2PL0 Copyright (c) Steve Scherf et al.
# Submitted via: audiograbber 1.83.01
#
DISCID=9c062d0b
DTITLE=Johnny Cash - Johhny Cash and The Music That Inspired -Walk The Line-(Disc
DTITLE=2)
DYEAR=2008
DGENRE=Country
TTITLE0=I Walk The Line
TTITLE1=Cry Cry Cry
TTITLE2=Get Rhythm
TTITLE3=You're My Baby (Little Wooly Booger)
TTITLE4=Ballad Of A Teenage Queen
TTITLE5=There You Go
TTITLE6=Don't Make Me Go
TTITLE7=I Was There When It Happened
TTITLE8=Give My Love To Rose
TTITLE9=Home Of The Blues
TTITLE10=Hey Porter
EXTD=
EXTT0=
EXTT1=
EXTT2=
EXTT3=
EXTT4=
EXTT5=
EXTT6=
EXTT7=
EXTT8=
EXTT9=
EXTT10=
PLAYORDER=
